<?xml version="1.0" encoding="UTF-8"?><svg id="b" xmlns="http://www.w3.org/2000/svg" width="2800" height="1325.67" viewBox="0 0 2800 1325.67"><g id="c"><path id="d" d="M722.59,404.72c22.91,26.53,32.57,60.47,32.57,103.49,0,109.51-54.26,229.62-162.76,360.34-110.76,132.96-224.86,199.43-342.29,199.43-73.62,0-133.71-25.69-180.26-77.11C23.28,939.48,0,872.99,0,791.42c0-155.33,77.99-308.83,234.01-460.52,156.02-151.69,313.42-227.55,472.24-227.55,94.42,0,170.96,32.86,229.64,98.53,58.65,65.67,88,151.91,88,258.68,0,114.03-32.19,233.94-96.57,359.71-64.38,125.79-168.23,271.97-311.52,438.54-5.6,6.7-8.4,10.62-8.4,11.73l1.68,2.52c9.5,0,44.44-26.01,104.86-77.99,46.42-39.14,94.52-85.83,144.31-140.06,44.74-48.64,162.74-181.71,354.03-399.2,112.96-128.59,212.52-229.92,298.65-304.01,86.13-74.07,182.61-141.59,289.45-202.53C1974.3,49.76,2127.54,0,2260.09,0c45.86,0,68.79,8.23,68.79,24.65,0,13.57-7.84,20.33-23.49,20.33h-14.25c-30.77-3.34-55.94-5.02-75.51-5.02-144.31,0-314.32,62.87-510.07,188.58-93.96,60.91-173.65,122.67-239.09,185.24-63.2,61.47-181.75,190.81-355.68,388.05-205.26,233.58-359.9,388.07-463.92,463.49-54.82,40.22-85.03,60.35-90.61,60.35-3.36,0-5.04-1.61-5.04-4.82,0-.56,6.14-9.24,18.45-25.99,98.92-127.96,183.73-279.68,254.44-455.16,70.71-175.46,106.07-321.88,106.07-439.25,0-188.88-76.57-283.32-229.7-283.32-60.35,0-129.92,20.69-208.73,62.03-78.81,41.34-150.62,94.98-215.45,160.91-70.41,72.09-126.71,152.42-168.92,240.98-42.2,88.58-63.28,171.41-63.28,248.52,0,69.29,18.71,124.07,56.18,164.29,37.44,40.22,88.02,60.33,151.76,60.33,124.09,0,244.82-79.3,362.21-237.93,83.84-113.39,125.77-214.76,125.77-304.12,0-40.22-9.93-72.2-29.74-95.92-10.36-13.06,2.84-21,12.32-11.51Z" fill="#da1c5c"/><g id="e"><path d="M1968.22,524.05c9.78,0,18.78-4.26,27.03-12.78,8.24-8.52,12.36-17.67,12.36-27.45,0-12.01-6.01-18.02-18.02-18.02-9.5,0-18.58,4.26-27.24,12.78-8.66,8.52-12.99,17.39-12.99,26.61,0,12.57,6.28,18.86,18.86,18.86Z" fill="#414042"/><path d="M2741.75,567.21h54.89l3.35-6.28h-54.89l48.19-81.29c-8.38,2.24-16.49,3.35-24.3,3.35s-15.5-1.11-23.89-3.35l-49.03,81.29h-41.9l-4.19,6.28h42.74l-58.83,98.75c-58.34,83.89-99.63,125.85-123.84,125.85-11.47,0-17.21-5.72-17.21-17.18s13.13-36.04,39.39-75.43c25.7-38.55,38.55-67.18,38.55-85.9,0-14.8-4.19-27.24-12.57-37.29-8.38-10.06-18.72-15.09-31.01-15.09-15.09,0-31.5,8.38-49.24,25.14-17.74,16.76-43.1,47.91-76.05,93.45,20.95-31.85,31.43-56.71,31.43-74.59,0-12.01-3.36-22.35-10.08-31.01-6.72-8.66-14.83-12.99-24.34-12.99-14.83,0-43.65,28.7-86.46,86.08l-15.97,21.29h0c-23.36,33.33-47.13,61.71-69.63,85.11-24.62,25.6-43.57,38.4-53.72,38.4-10.91,0-16.36-6.56-16.36-19.69s12.85-42.04,38.55-85.06l74.17-122.78c-12.01,1.96-21.79,2.93-29.33,2.93-6.43,0-13.83-.97-22.21-2.93l-21.37,40.65c2.23-7.82,3.35-14.1,3.35-18.86,0-16.76-8.66-25.14-25.98-25.14-20.39,0-47.21,9.22-80.45,27.65-49.27,26.91-82.49,56.42-99.69,88.53-55.66,76.45-95.07,114.7-118.18,114.7-13.15,0-19.72-6.29-19.72-18.86s6.84-29.75,20.53-52.38l95.12-156.3c-13.69,1.96-24.3,2.93-31.85,2.93-5.03,0-11.88-.97-20.53-2.93l-56.08,95.27c-62.36,88.17-105.26,132.27-128.69,132.27-10.63,0-15.94-6.29-15.94-18.86,0-11.17,9.7-33.94,29.12-68.3,19.41-34.36,87.79-149.18,205.12-344.45-8.94,3.35-18.72,5.03-29.33,5.03-6.43,0-13.83-1.11-22.21-3.35-34.64,61.74-77.25,134.65-127.8,218.74-15.7,26.09-28.92,48.26-39.69,66.52-2.15,2.55-4.98,6.3-8.72,11.63-25.46,37.5-50.49,69.04-75.11,94.64-24.62,25.6-43.37,38.4-53.72,38.4-10.91,0-16.36-6.56-16.36-19.69s12.85-42.04,38.55-85.06l74.17-122.78c-12.01,1.96-21.79,2.93-29.33,2.93-6.43,0-13.83-.97-22.21-2.93l-21.37,40.65c2.23-7.82,3.35-14.1,3.35-18.86,0-16.76-8.66-25.14-25.98-25.14-20.39,0-47.21,9.22-80.45,27.65-75.71,41.35-113.56,88.84-113.56,142.47,0,19.28,5.03,35.27,15.09,47.98s22.48,19.07,37.29,19.07c13.97,0,28.35-6.85,43.16-20.53,14.8-13.68,36.17-40.08,64.11-79.2-8.94,17.6-13.41,33.94-13.41,49.03s4.05,26.61,12.16,36.25c8.11,9.64,18.59,14.46,31.47,14.46,19.01,0,45.03-19.87,78.03-59.59,13.67-16.21,25.04-30.02,34.14-41.46-1.82,3.34-3.26,6.1-4.32,8.24-7.12,14.39-10.69,29.27-10.69,44.63,0,13.97,3.84,25.5,11.54,34.57,7.69,9.07,17.55,13.62,29.58,13.62,24.16,0,61.08-33.66,110.75-100.93-11.28,22.2-16.94,39.51-16.94,51.9,0,13.97,4.4,25.63,13.21,34.99,8.81,9.36,19.79,14.04,32.93,14.04,26.59,0,64.68-33.71,114.25-101.09-3.56,11.06-5.35,22.4-5.35,34.04,0,19.28,5.03,35.27,15.09,47.98,10.06,12.71,22.48,19.07,37.29,19.07,13.96,0,28.35-6.85,43.16-20.53,14.8-13.68,36.17-40.08,64.11-79.2-8.94,17.6-13.41,33.94-13.41,49.03s4.05,26.61,12.17,36.25c8.11,9.64,18.59,14.46,31.47,14.46,19.01,0,45.03-19.87,78.03-59.59,24.65-29.22,41.85-50.68,51.62-64.4,3.47-4.88,15.74-22.32,17.69-25.07,38.7-54.55,64.85-81.82,78.44-81.82,6.99,0,10.5,4.19,10.5,12.57,0,14.81-18.58,51.82-55.73,111.04l-65.37,103.5c8.66-1.12,17.87-1.68,27.66-1.68,2.79,0,11.03.56,24.72,1.68,84.92-151.41,147.78-227.12,188.56-227.12,12.01,0,18.02,5.73,18.02,17.18,0,9.22-11.31,30.59-33.94,64.11-21.79,31.85-35.27,53.15-40.44,63.9-5.17,10.76-7.75,22.42-7.75,34.99,0,14.25,4.26,26.26,12.79,36.04,8.53,9.78,19.09,14.67,31.68,14.67,19.01,0,45.16-19.87,78.45-59.59,10.1-12.05,18.93-22.78,26.52-32.19-7.43,16.07-11.15,30.05-11.15,41.92,0,14.25,4.4,26.12,13.21,35.62,8.81,9.49,19.79,14.25,32.93,14.25,26.57,0,66.14-36.51,118.72-109.53l18.04-24.76c2.51-3.64,3.91-5.88,4.19-6.72,0-1.68-.84-2.52-2.51-2.52-1.4,0-3.08,1.4-5.04,4.19-60.43,88.7-103.36,133.04-128.82,133.04-13.15,0-19.72-6.29-19.72-18.86,0-11.45,5.72-26.82,17.18-46.09l93.44-159.65ZM1558.4,695.85c-47.5,63.97-80.87,95.96-100.15,95.96-16.2,0-24.3-9.07-24.3-27.24,0-31.01,20.88-71.66,62.65-121.94,41.76-50.28,75.49-75.43,101.2-75.43,12.57,0,18.86,6.85,18.86,20.53,0,19.56-19.42,55.59-58.24,108.11ZM2135.41,695.85c-47.5,63.97-80.87,95.96-100.15,95.96-16.2,0-24.3-9.07-24.3-27.24,0-31.01,20.88-71.66,62.65-121.94,41.76-50.28,75.49-75.43,101.2-75.43,12.57,0,18.86,6.85,18.86,20.53,0,19.56-19.42,55.59-58.24,108.11Z" fill="#414042"/></g><g id="f"><path d="M1265.61,947.66l-23.18,66.9c-.9,2.64-1.35,4.47-1.35,5.5,0,1.47,1.27,2.57,3.83,3.28v2.15h-22.25v-2.15c2.55-.49,3.83-1.59,3.83-3.28,0-.94-.49-2.77-1.48-5.5l-24.49-67.38c-1.7-4.6-3.01-7.5-3.92-8.68-.92-1.18-2.45-1.98-4.6-2.38v-2.15h21.49v2.15c-2.68.31-4.03,1.45-4.03,3.42,0,.72.6,2.79,1.81,6.23l22.79,64.67,22.62-64.67c1.3-3.8,1.95-5.99,1.95-6.57,0-1.61-1.28-2.64-3.83-3.08v-2.15h23.39v2.15c-2.55.63-3.83,1.77-3.83,3.42,0,.67.6,2.75,1.82,6.23l22.18,64.67,21.95-64.67c1.08-3.22,1.62-5.34,1.62-6.37,0-1.7-1.25-2.79-3.76-3.28v-2.15h20.26v2.15c-2.19.45-3.79,1.31-4.8,2.58-1.01,1.27-2.25,4.1-3.72,8.48l-23.42,67.38c-.89,2.59-1.34,4.31-1.34,5.16,0,1.79,1.27,2.99,3.82,3.62v2.15h-21.87v-2.15c2.55-.58,3.82-1.81,3.82-3.69,0-.58-.45-2.1-1.34-4.56l-23.96-67.43Z" fill="#606161"/><path d="M1348.28,1017.9v-59.94c0-1.88-.29-3.19-.87-3.96-.58-.76-1.72-1.36-3.42-1.81v-1.81h18.17v1.81c-1.7.45-2.84,1.05-3.42,1.81-.58.76-.87,2.08-.87,3.96v59.94c0,1.83.29,3.14.87,3.92.58.78,1.72,1.4,3.42,1.84v1.81h-18.17v-1.81c1.7-.45,2.84-1.06,3.42-1.84.58-.78.87-2.09.87-3.92Z" fill="#606161"/><path d="M1390.58,962.12v55.78c0,1.83.28,3.14.84,3.92.56.78,1.71,1.4,3.45,1.84v1.81h-16.56v-1.81c1.74-.45,2.89-1.06,3.45-1.84.56-.78.84-2.09.84-3.92v-59.94c0-1.88-.29-3.19-.87-3.96-.58-.76-1.72-1.36-3.42-1.81v-1.81h24.4v1.81c-2.32.76-3.49,1.92-3.49,3.49,0,1.34.85,2.95,2.55,4.83l44.32,49.61v-52.16c0-1.88-.29-3.19-.87-3.96-.58-.76-1.72-1.36-3.42-1.81v-1.81h16.56v1.81c-1.7.45-2.84,1.05-3.42,1.81-.58.76-.87,2.08-.87,3.96v59.94c0,1.83.28,3.14.84,3.92.56.78,1.71,1.4,3.45,1.84v1.81h-19.64v-1.81c2.32-.58,3.49-1.5,3.49-2.75,0-.94-1.07-2.62-3.22-5.03l-48.41-53.77Z" fill="#606161"/><path d="M1488.33,990.35v27.82h46.4c1.88,0,3.21-.29,3.99-.86.78-.57,1.38-1.72,1.78-3.43h1.88v15.89h-1.88c-.4-1.7-.98-2.84-1.74-3.42-.76-.58-2.08-.87-3.96-.87h-60.34v-1.81c1.74-.45,2.89-1.06,3.45-1.84.56-.78.84-2.09.84-3.92v-59.94c0-1.88-.29-3.19-.87-3.96-.58-.76-1.72-1.36-3.42-1.81v-1.81h59.87c1.88,0,3.2-.29,3.96-.87.76-.58,1.36-1.72,1.81-3.42h1.81v15.89h-1.81c-.45-1.72-1.05-2.86-1.81-3.43-.76-.57-2.08-.86-3.96-.86h-45.99v25.34h29.3c1.88,0,3.19-.29,3.96-.87.76-.58,1.36-1.72,1.81-3.42h1.81v15.89h-1.81c-.45-1.72-1.06-2.86-1.84-3.43s-2.09-.86-3.92-.86h-29.3Z" fill="#606161"/><path d="M1570.2,991.49v26.42c0,1.83.29,3.14.87,3.92.58.78,1.72,1.4,3.42,1.84v1.81h-18.17v-1.81c1.74-.45,2.89-1.06,3.45-1.84.56-.78.84-2.09.84-3.92v-59.94c0-1.88-.29-3.19-.87-3.96-.58-.76-1.72-1.36-3.42-1.81v-1.81h44.59c5.05,0,9.17.36,12.37,1.07,3.19.72,5.98,1.92,8.35,3.62,5.18,3.67,7.78,9.03,7.78,16.09,0,5.77-1.81,10.32-5.43,13.64-3.62,3.33-8.94,5.33-15.96,6l18.84,29.9c.67,1.03,1.33,1.72,1.98,2.09.65.36,1.8.65,3.45.86v1.81h-18.58v-1.81c1.74-.36,2.61-.92,2.61-1.68,0-.54-.51-1.61-1.54-3.22l-17.27-27.29h-27.3ZM1570.2,984.18h28.56c4.6,0,8.06-.17,10.36-.5,2.3-.33,4.26-.95,5.87-1.84,3.53-1.97,5.3-5.39,5.3-10.26s-1.65-8.22-4.96-10.59c-3.04-2.19-8.2-3.28-15.49-3.28h-29.63v26.48Z" fill="#606161"/><path d="M1677,992.33v25.58c0,1.83.28,3.14.84,3.92.56.78,1.71,1.4,3.45,1.84v1.81h-18.17v-1.81c1.7-.45,2.84-1.06,3.42-1.84.58-.78.87-2.09.87-3.92v-25.58l-23.13-30.15c-2.82-3.7-4.89-6.16-6.23-7.37-1.34-1.21-2.93-2.08-4.76-2.61v-1.81h21.16v1.81c-1.97.31-2.95,1.16-2.95,2.55,0,1.25.6,2.66,1.81,4.22l19.8,25.92,18.34-25.85c1.22-1.83,1.83-3.21,1.83-4.15,0-1.52-.99-2.41-2.97-2.68v-1.81h19.14v1.81c-2.01.67-3.87,1.82-5.56,3.45-1.7,1.63-4.02,4.5-6.97,8.6l-19.91,28.07Z" fill="#606161"/><path d="M1784.21,951.33c.04.4.21.93.5,1.58.29.65.73,1.49,1.31,2.51.67.98,1.5,1.99,2.48,3.02.71,0,3.24-3.02,7.58-9.05,4.33-6.03,6.77-9.09,7.31-9.18,1.03-.13,1.94-.24,2.75-.34.8-.09,1.5-.16,2.08-.2.76.18,1.35.39,1.78.64.42.25.64.55.64.91,0,.67-.18,1.49-.54,2.45-.36.96-.96,2.04-1.81,3.25-.98,2.15-2.3,4.69-3.96,7.64-1.65,2.95-3.67,6.32-6.03,10.12-.22,1.12-.64,2.43-1.24,3.92-.6,1.5-1.4,3.27-2.38,5.33-.85,1.39-1.51,2.58-1.98,3.59-.47,1.01-.7,1.8-.7,2.38,0,.36.1,1.01.3,1.94.2.94.26,1.59.17,1.94-.05,1.43-.18,2.84-.4,4.22.13.94.27,1.81.4,2.61-.31,1.61-.63,3.11-.94,4.49,0,.98.43,1.7,1.27,2.15.85.45,2.15.67,3.89.67.62,0,1.56-.11,2.82-.34,1.25-.22,2.21-.34,2.88-.34,1.25.27,2.01.4,2.28.4,1.43,0,3.89-.87,7.37-2.61,3.49-1.74,5.39-2.61,5.7-2.61.36,0,.63.13.8.4.18.27.27.65.27,1.14,0,.58-.1,1.13-.3,1.64-.2.51-.5.91-.9,1.17-.45.31-.87.62-1.27.91-.4.29-.83.57-1.27.84-.76.8-1.41,1.63-1.94,2.48-.72,1.03-1.42,1.86-2.11,2.48-.69.63-1.4,1.12-2.11,1.47-1.92.54-3.75,1.03-5.5,1.47-.94.45-1.79.85-2.55,1.21-.54.18-1.03.34-1.47.47s-.85.2-1.21.2c-3.04-.27-6.06-.49-9.05-.67-.31-.09-.63-.06-.94.1s-.65.44-1.01.84c-.45.45-1.01.96-1.68,1.54-1.25,2.55-2.26,4.56-3.02,6.03-.76,1.47-1.34,2.41-1.74,2.82-.94,1.21-2.19,2.1-3.75,2.68-1.57.58-3.44.87-5.63.87-.89,0-1.57-.36-2.04-1.07-.47-.71-.7-1.81-.7-3.28,0-.31.04-.65.13-1.01s.2-.76.34-1.21c.18-.45.4-1.12.67-2.01,0-.62.01-1.5.03-2.61.02-1.12.52-2.91,1.51-5.36.36-1.16.64-2.2.84-3.12.2-.92.26-1.73.17-2.45l-.74-1.41c-5.28-4.29-9.68-9.33-13.21-15.12-3.53-5.79-6.23-12.35-8.11-19.68-.31-1.52-.67-3.15-1.07-4.9.31-4.74.58-8.46.8-11.16.22-2.7.4-4.41.54-5.13.85-3.26,2.17-5.71,3.96-7.34,1.79-1.63,4.02-2.45,6.7-2.45.22,0,.89.11,2.01.34s2.68.49,4.69.8l9.05,6.9c.98,1.03,2.07,2.39,3.25,4.09,1.18,1.7,2.54,3.69,4.06,5.97ZM1782.19,974.12c-.27,0-.59.11-.97.34-.38.22-.73.56-1.04,1.01-.45.58-.85,1.04-1.21,1.37-.36.34-.63.55-.8.64l-.47-.47c.18-1.16.34-2.26.47-3.29.04-.27.85-1.5,2.41-3.69,1.56-2.19,2.35-3.75,2.35-4.69-.22-.8-.51-1.56-.87-2.28-.18-.31-.3-.88-.37-1.71-.07-.83-.17-1.87-.3-3.12,0-.22-.13-.52-.4-.91-.27-.38-.69-.84-1.27-1.37l-3.49-6.17c-1.79-3.26-3.71-5.71-5.77-7.34-2.06-1.63-4.2-2.45-6.44-2.45-1.16,0-2.19.34-3.08,1.01-.89.67-1.63,1.7-2.21,3.08-.45.98-.76,2.07-.94,3.25-.18,1.18-.27,2.49-.27,3.92,0,1.3.3,3.25.91,5.87.6,2.61.91,4.57.91,5.87-.13.8-.27,1.47-.4,2.01,1.03,3.17,2.42,6.23,4.19,9.18,1.77,2.95,3.9,5.77,6.4,8.45,1.61,1.79,2.94,3.13,3.99,4.02,1.05.89,1.8,1.34,2.25,1.34.31,0,.66-.2,1.04-.6.38-.4.77-.98,1.17-1.74.31-.67.62-1.28.94-1.84.31-.56.6-1.17.87-1.84.13-.58.3-1.17.5-1.78.2-.6.48-1.26.84-1.98.54-.89.96-1.65,1.27-2.28s.49-1.1.54-1.41l-.74-.4Z" fill="#606161"/><path d="M1873.85,1018.51v-77.57c0-1.34-.31-2.37-.94-3.08-.63-.71-1.74-1.3-3.35-1.74v-2.15h48.27c10.95,0,19.33,1.52,25.14,4.56,7.33,3.8,12.92,9.65,16.76,17.57,3.35,6.93,5.03,14.8,5.03,23.6,0,10.42-2.26,19.4-6.77,26.95-4.07,6.7-9.22,11.52-15.45,14.45-6.24,2.93-14.47,4.39-24.71,4.39h-48.27v-2.15c1.61-.45,2.73-1.03,3.35-1.74.63-.71.94-1.74.94-3.08ZM1884.37,1016.76h33.05c9.7,0,16.9-1.5,21.59-4.49,5.54-3.58,9.61-9.05,12.2-16.43,1.7-4.92,2.55-10.3,2.55-16.16,0-10.64-2.7-19.44-8.11-26.42-2.99-3.84-6.64-6.57-10.93-8.18-4.29-1.61-10.06-2.41-17.3-2.41h-33.05v74.09Z" fill="#606161"/><path d="M1984.87,1017.9v-59.94c0-1.88-.29-3.19-.87-3.96s-1.72-1.36-3.42-1.81v-1.81h18.17v1.81c-1.7.45-2.84,1.05-3.42,1.81-.58.76-.87,2.08-.87,3.96v59.94c0,1.83.29,3.14.87,3.92.58.78,1.72,1.4,3.42,1.84v1.81h-18.17v-1.81c1.7-.45,2.84-1.06,3.42-1.84.58-.78.87-2.09.87-3.92Z" fill="#606161"/><path d="M2086.31,954.28l-7.37,14.62-1.61-.8c.22-1.3.34-2.19.34-2.68,0-1.07-1.45-2.37-4.36-3.89-6.17-3.31-13.68-4.96-22.53-4.96-7.11,0-13.14,1.32-18.1,3.96-4.96,2.68-7.44,6.41-7.44,11.2,0,2.15.63,4.08,1.88,5.8,1.25,1.72,2.93,2.94,5.03,3.65,2.1.72,4.38,1.18,6.84,1.41,2.46.22,7.73.49,15.82.8,6.75.22,11.85.65,15.32,1.27,3.46.63,6.42,1.63,8.88,3.02,2.64,1.48,4.72,3.61,6.23,6.4,1.52,2.79,2.28,5.85,2.28,9.15,0,6.93-2.84,12.45-8.51,16.56-6.79,4.87-15.82,7.31-27.09,7.31-5.54,0-11.36-.85-17.46-2.55-6.1-1.7-11.77-4.02-17-6.97-.72-.45-1.25-.67-1.61-.67-.67,0-1.68.78-3.02,2.35l-1.54-1.01,8.51-14.28,1.61.94c-.13.54-.22.9-.27,1.07-.22.72-.34,1.3-.34,1.74,0,1.25,2.28,3.08,6.84,5.5,7.69,4.07,15.67,6.1,23.94,6.1,7.55,0,13.83-1.3,18.84-3.89,2.41-1.25,4.33-2.94,5.77-5.06,1.43-2.12,2.15-4.35,2.15-6.67,0-2.15-.6-4.07-1.81-5.77-1.21-1.7-2.8-2.91-4.76-3.62-1.83-.63-3.88-1.07-6.13-1.34-2.26-.27-6.51-.51-12.77-.74-7.37-.31-12.65-.68-15.82-1.11-3.17-.42-6.17-1.15-8.98-2.18-3.58-1.3-6.46-3.4-8.65-6.3-2.19-2.99-3.28-6.52-3.28-10.59,0-7.19,3.26-12.85,9.79-16.96,6.66-4.2,15.13-6.3,25.41-6.3,9.39,0,18.82,2.1,28.29,6.3,1.43.58,2.26.87,2.48.87.71,0,1.56-.83,2.55-2.48l1.68.8Z" fill="#606161"/><path d="M2137.2,958.1v59.8c0,1.83.28,3.14.84,3.92.56.78,1.71,1.4,3.45,1.84v1.81h-18.17v-1.81c1.7-.45,2.84-1.06,3.42-1.84.58-.78.87-2.09.87-3.92v-59.8h-24.47c-1.88,0-3.2.29-3.96.86-.76.57-1.36,1.72-1.81,3.43h-1.81v-15.89h1.81c.45,1.7,1.05,2.84,1.81,3.42s2.08.87,3.96.87h58.53c1.88,0,3.19-.29,3.96-.87.76-.58,1.36-1.72,1.81-3.42h1.81v15.89h-1.81c-.45-1.71-1.06-2.86-1.84-3.43-.78-.57-2.09-.86-3.92-.86h-24.47Z" fill="#606161"/><path d="M2182.72,1017.9v-59.94c0-1.88-.29-3.19-.87-3.96-.58-.76-1.72-1.36-3.42-1.81v-1.81h18.17v1.81c-1.7.45-2.84,1.05-3.42,1.81-.58.76-.87,2.08-.87,3.96v59.94c0,1.83.29,3.14.87,3.92.58.78,1.72,1.4,3.42,1.84v1.81h-18.17v-1.81c1.7-.45,2.84-1.06,3.42-1.84.58-.78.87-2.09.87-3.92Z" fill="#606161"/><path d="M2226.64,1018.17h45.79c1.88,0,3.21-.29,3.99-.86.78-.57,1.4-1.72,1.84-3.43h1.81v15.89h-1.81c-.45-1.7-1.06-2.84-1.84-3.42-.78-.58-2.11-.87-3.99-.87h-59.67v-1.81c1.7-.45,2.84-1.06,3.42-1.84.58-.78.87-2.09.87-3.92v-59.94c0-1.88-.29-3.19-.87-3.96s-1.72-1.36-3.42-1.81v-1.81h18.17v1.81c-1.7.45-2.84,1.05-3.42,1.81-.58.76-.87,2.08-.87,3.96v60.21Z" fill="#606161"/><path d="M2303.47,1018.17h45.79c1.88,0,3.21-.29,3.99-.86.78-.57,1.4-1.72,1.84-3.43h1.81v15.89h-1.81c-.45-1.7-1.06-2.84-1.84-3.42-.78-.58-2.11-.87-3.99-.87h-59.67v-1.81c1.7-.45,2.84-1.06,3.42-1.84.58-.78.87-2.09.87-3.92v-59.94c0-1.88-.29-3.19-.87-3.96s-1.72-1.36-3.42-1.81v-1.81h18.17v1.81c-1.7.45-2.84,1.05-3.42,1.81-.58.76-.87,2.08-.87,3.96v60.21Z" fill="#606161"/><path d="M2380.31,990.35v27.82h46.4c1.88,0,3.21-.29,3.99-.86.78-.57,1.38-1.72,1.78-3.43h1.88v15.89h-1.88c-.4-1.7-.98-2.84-1.74-3.42-.76-.58-2.08-.87-3.96-.87h-60.34v-1.81c1.74-.45,2.89-1.06,3.45-1.84.56-.78.84-2.09.84-3.92v-59.94c0-1.88-.29-3.19-.87-3.96s-1.72-1.36-3.42-1.81v-1.81h59.87c1.88,0,3.19-.29,3.96-.87.76-.58,1.36-1.72,1.81-3.42h1.81v15.89h-1.81c-.45-1.72-1.05-2.86-1.81-3.43-.76-.57-2.08-.86-3.96-.86h-45.99v25.34h29.3c1.88,0,3.19-.29,3.96-.87.76-.58,1.36-1.72,1.81-3.42h1.81v15.89h-1.81c-.45-1.72-1.06-2.86-1.84-3.43s-2.09-.86-3.92-.86h-29.3Z" fill="#606161"/><path d="M2462.17,991.49v26.42c0,1.83.29,3.14.87,3.92.58.78,1.72,1.4,3.42,1.84v1.81h-18.17v-1.81c1.74-.45,2.89-1.06,3.45-1.84.56-.78.84-2.09.84-3.92v-59.94c0-1.88-.29-3.19-.87-3.96s-1.72-1.36-3.42-1.81v-1.81h44.59c5.05,0,9.17.36,12.37,1.07,3.19.72,5.98,1.92,8.35,3.62,5.18,3.67,7.78,9.03,7.78,16.09,0,5.77-1.81,10.32-5.43,13.64-3.62,3.33-8.94,5.33-15.96,6l18.84,29.9c.67,1.03,1.33,1.72,1.98,2.09.65.36,1.8.65,3.45.86v1.81h-18.58v-1.81c1.74-.36,2.62-.92,2.62-1.68,0-.54-.51-1.61-1.54-3.22l-17.27-27.29h-27.3ZM2462.17,984.18h28.56c4.6,0,8.06-.17,10.36-.5,2.3-.33,4.26-.95,5.87-1.84,3.53-1.97,5.3-5.39,5.3-10.26s-1.65-8.22-4.96-10.59c-3.04-2.19-8.2-3.28-15.49-3.28h-29.63v26.48Z" fill="#606161"/><path d="M2568.97,992.33v25.58c0,1.83.28,3.14.84,3.92.56.78,1.71,1.4,3.45,1.84v1.81h-18.17v-1.81c1.7-.45,2.84-1.06,3.42-1.84.58-.78.87-2.09.87-3.92v-25.58l-23.13-30.15c-2.82-3.7-4.89-6.16-6.24-7.37-1.34-1.21-2.93-2.08-4.76-2.61v-1.81h21.16v1.81c-1.97.31-2.95,1.16-2.95,2.55,0,1.25.6,2.66,1.81,4.22l19.8,25.92,18.34-25.85c1.22-1.83,1.83-3.21,1.83-4.15,0-1.52-.99-2.41-2.97-2.68v-1.81h19.14v1.81c-2.01.67-3.87,1.82-5.56,3.45-1.7,1.63-4.02,4.5-6.97,8.6l-19.91,28.07Z" fill="#606161"/></g></g></svg>